<svg width="48" height="66" viewBox="0 0 48 66" fill="none" xmlns="http://www.w3.org/2000/svg">
<path fill-rule="evenodd" clip-rule="evenodd" d="M0.5 0.5H47.5V65.5H0.5V0.5ZM0 0H0.5H47.5H48V0.5V65.5V66H47.5H0.5H0V65.5V0.5V0ZM44 4H4V14H44V4ZM19 51V19H29V51H19ZM35.4307 55V63H37.364V56.5652H39.2751C40.8084 57 40.1862 58.7174 39.2751 58.7174H37.964V60.3043H38.6084L40.3196 63H42.4307L40.4751 60.0652C42.2307 59.8696 43.6084 55.6957 39.6751 55H35.4307ZM7.33643 63V56.458H5V55.126H11.2573V56.458H8.92627V63H7.33643ZM13.1686 55.126V63H19.1573V61.6733H14.7584V59.5303H18.7115V58.2036H14.7584V56.458H19.007V55.126H13.1686ZM21.364 63V55.126H23.7434L25.1721 60.4971L26.5847 55.126H28.9695V63H27.4924V56.8018L25.9294 63H24.3987L22.8411 56.8018V63H21.364ZM31.3802 55.126V63H32.9701V55.126H31.3802Z" fill="white"/>
</svg>
